<?xml version="1.0" encoding="UTF-8" standalone="no"?>
<!DOCTYPE svg PUBLIC "-//W3C//DTD SVG 1.1//EN" "http://www.w3.org/Graphics/SVG/1.1/DTD/svg11.dtd">
<svg xmlns="http://www.w3.org/2000/svg" version="1.1" viewBox="0 0 200 200" width="200.0pt" height="200.0pt">
<path d="M 0.00 0.00 L 95.35 0.00 C 87.77 0.54 80.15 1.82 72.82 3.88 C 45.36 11.56 21.80 31.52 9.72 57.35 C 5.32 66.57 2.36 76.45 0.97 86.57 C 0.60 89.21 0.25 91.85 0.00 94.51 L 0.00 0.00 Z" fill="#ffffff" />
<path d="M 95.35 0.00 L 107.97 0.00 L 106.74 0.22 C 104.27 0.66 101.80 1.03 99.30 1.27 C 100.91 2.71 102.49 4.18 104.06 5.66 C 99.55 5.98 95.55 5.33 91.42 7.56 C 87.06 8.33 82.68 8.79 78.37 9.84 C 77.89 8.80 77.42 7.76 76.94 6.72 C 74.26 6.72 71.58 6.75 68.90 6.82 C 71.00 6.00 73.10 5.14 75.18 4.25 L 72.82 3.88 C 80.15 1.82 87.77 0.54 95.35 0.00 Z" fill="#0a5f9a" />
<path d="M 107.97 0.00 L 200.00 0.00 L 200.00 93.43 C 199.26 81.36 196.15 69.18 191.02 58.23 C 187.40 50.30 182.65 42.89 177.07 36.19 C 169.83 27.51 161.08 19.96 151.34 14.21 C 144.52 10.15 137.17 6.71 129.51 4.54 C 122.19 2.12 114.41 0.86 106.74 0.22 L 107.97 0.00 Z" fill="#ffffff" />
<path d="M 99.30 1.27 C 101.80 1.03 104.27 0.66 106.74 0.22 C 114.41 0.86 122.19 2.12 129.51 4.54 C 126.72 4.66 123.98 4.66 121.19 4.41 C 122.30 5.68 123.42 6.94 124.54 8.20 C 124.05 8.86 123.57 9.51 123.08 10.16 C 112.71 7.44 102.09 6.93 91.42 7.56 C 95.55 5.33 99.55 5.98 104.06 5.66 C 102.49 4.18 100.91 2.71 99.30 1.27 Z" fill="#06558e" />
<path d="M 72.82 3.88 L 75.18 4.25 C 73.10 5.14 71.00 6.00 68.90 6.82 C 71.58 6.75 74.26 6.72 76.94 6.72 C 77.42 7.76 77.89 8.80 78.37 9.84 C 51.77 16.20 28.81 34.66 16.81 59.22 C 14.44 58.62 12.09 57.94 9.72 57.35 C 21.80 31.52 45.36 11.56 72.82 3.88 Z" fill="#0d6aa6" />
<path d="M 121.19 4.41 C 123.98 4.66 126.72 4.66 129.51 4.54 C 137.17 6.71 144.52 10.15 151.34 14.21 C 150.04 14.45 148.76 14.74 147.47 15.03 C 147.40 16.73 147.33 18.42 147.25 20.12 C 139.67 15.74 131.58 12.30 123.08 10.16 C 123.57 9.51 124.05 8.86 124.54 8.20 C 123.42 6.94 122.30 5.68 121.19 4.41 Z" fill="#054b7e" />
<path d="M 91.42 7.56 C 102.09 6.93 112.71 7.44 123.08 10.16 C 131.58 12.30 139.67 15.74 147.25 20.12 C 150.82 22.20 154.15 24.62 157.45 27.09 C 156.20 27.82 154.98 28.60 153.75 29.37 C 144.48 22.12 133.57 16.90 122.16 14.02 C 108.08 10.28 92.69 10.39 78.57 13.86 C 60.04 18.27 43.04 29.27 31.09 44.07 C 25.57 50.86 21.03 58.46 17.73 66.57 C 14.45 74.79 12.16 83.59 11.53 92.44 C 11.37 97.54 11.43 102.67 11.53 107.77 C 11.08 103.99 11.60 100.13 11.11 96.38 L 9.81 95.80 C 9.42 100.61 10.03 105.07 7.83 109.57 C 7.03 100.63 7.22 91.64 8.96 82.82 C 10.58 74.64 13.08 66.68 16.81 59.22 C 28.81 34.66 51.77 16.20 78.37 9.84 C 82.68 8.79 87.06 8.33 91.42 7.56 Z" fill="#f3f3f3" />
<path d="M 122.16 14.02 C 124.72 16.88 126.84 19.77 129.77 22.25 C 126.82 29.42 123.74 36.54 120.92 43.77 C 122.32 44.35 123.72 44.93 125.12 45.51 C 125.69 44.28 126.27 43.06 126.86 41.83 C 130.51 39.01 131.45 34.10 133.66 29.95 C 134.59 33.72 135.65 37.46 136.61 41.22 C 135.43 42.24 134.23 43.19 133.33 44.48 C 132.94 44.97 132.56 45.46 132.19 45.97 C 134.14 49.70 136.50 53.02 139.77 55.72 C 139.46 56.77 139.15 57.82 138.84 58.88 C 137.53 58.63 136.21 58.40 134.91 58.11 C 129.15 53.56 122.80 49.98 115.71 47.95 C 117.08 47.46 118.44 46.96 119.81 46.47 C 119.57 44.91 119.33 43.35 119.10 41.79 C 118.24 41.90 117.37 42.04 116.50 42.10 C 114.59 38.99 112.67 35.89 110.65 32.85 C 113.32 31.30 115.72 30.06 116.57 26.83 C 117.96 22.00 113.73 17.43 108.99 17.29 C 104.41 17.15 99.80 17.24 95.22 17.30 C 95.14 19.67 95.15 22.05 95.18 24.42 C 94.56 22.28 93.97 19.99 92.84 18.06 C 88.89 13.91 83.83 14.35 78.57 13.86 C 92.69 10.39 108.08 10.28 122.16 14.02 Z" fill="#085b95" />
<path d="M 78.57 13.86 C 83.83 14.35 88.89 13.91 92.84 18.06 C 93.97 19.99 94.56 22.28 95.18 24.42 C 95.27 29.69 95.18 34.96 95.22 40.23 C 96.73 40.11 98.25 39.99 99.76 39.87 C 99.80 37.78 99.86 35.70 99.88 33.61 C 102.08 36.89 103.25 39.66 104.02 43.54 C 100.90 44.24 97.82 45.10 94.72 45.85 C 92.78 46.18 90.86 46.49 88.93 46.88 C 90.55 45.69 91.96 44.28 93.32 42.81 C 91.59 42.58 89.84 42.37 88.12 42.09 L 87.28 41.33 C 89.04 41.04 90.80 40.74 92.56 40.45 C 86.62 34.01 80.81 27.45 74.82 21.07 C 73.17 21.56 71.53 22.16 69.91 22.73 C 69.48 31.02 68.69 39.27 68.27 47.56 C 67.81 44.67 67.43 41.77 66.99 38.87 C 65.96 38.65 64.93 38.44 63.90 38.28 C 62.99 39.53 62.13 40.80 61.27 42.08 C 61.87 39.16 62.05 36.39 60.05 33.96 C 57.18 30.50 51.68 30.38 48.49 33.46 C 44.90 36.99 41.64 40.88 38.30 44.64 C 40.28 46.43 42.22 48.25 44.20 50.03 C 42.89 49.86 41.56 49.72 40.23 49.63 C 39.94 56.28 39.87 63.95 42.99 70.01 C 44.68 73.45 47.52 75.36 50.58 77.43 C 49.43 79.98 48.42 82.60 47.64 85.28 C 45.53 84.46 43.41 83.97 41.88 82.18 C 39.05 79.01 36.66 75.53 35.51 71.39 C 34.06 66.32 31.69 62.38 31.93 57.00 C 32.08 52.60 32.31 48.36 31.09 44.07 C 43.04 29.27 60.04 18.27 78.57 13.86 Z" fill="#1476b0" />
<path d="M 151.34 14.21 C 161.08 19.96 169.83 27.51 177.07 36.19 C 175.42 37.99 173.94 39.91 172.47 41.86 C 168.01 36.45 163.03 31.35 157.45 27.09 C 154.15 24.62 150.82 22.20 147.25 20.12 C 147.33 18.42 147.40 16.73 147.47 15.03 C 148.76 14.74 150.04 14.45 151.34 14.21 Z" fill="#054271" />
<path d="M 122.16 14.02 C 133.57 16.90 144.48 22.12 153.75 29.37 C 156.85 31.83 159.80 34.48 162.59 37.29 C 162.56 42.42 164.36 46.97 165.03 51.98 C 165.64 56.60 166.34 61.33 166.24 66.00 C 165.52 79.49 163.13 92.92 157.38 105.23 C 157.08 103.19 156.81 101.15 156.58 99.11 C 156.04 101.21 155.44 103.30 154.86 105.40 C 154.93 100.81 154.98 96.03 154.27 91.50 C 152.78 82.54 149.02 73.96 143.42 66.81 C 140.86 63.66 138.00 60.75 134.91 58.11 C 136.21 58.40 137.53 58.63 138.84 58.88 C 139.15 57.82 139.46 56.77 139.77 55.72 C 142.31 57.46 144.79 58.92 147.99 58.74 C 150.39 58.67 152.22 57.14 153.05 54.94 C 153.92 52.75 152.78 50.36 151.81 48.40 C 149.26 44.28 145.10 41.95 144.14 37.42 C 149.90 36.38 154.00 42.53 156.60 46.73 C 157.65 45.87 158.70 45.01 159.75 44.15 C 156.97 38.90 153.00 34.26 147.05 32.68 C 143.82 31.81 140.09 33.42 139.63 36.96 C 139.31 41.40 142.84 44.09 145.50 47.07 C 146.62 48.36 147.94 49.79 148.57 51.40 C 149.06 52.60 147.69 53.69 147.17 54.67 C 141.41 52.64 138.61 48.16 135.68 43.17 C 134.89 43.59 134.10 44.03 133.33 44.48 C 134.23 43.19 135.43 42.24 136.61 41.22 C 135.65 37.46 134.59 33.72 133.66 29.95 C 131.45 34.10 130.51 39.01 126.86 41.83 C 129.16 35.91 131.74 30.10 134.09 24.19 C 132.64 23.56 131.18 22.95 129.77 22.25 C 126.84 19.77 124.72 16.88 122.16 14.02 Z" fill="#054a7d" />
<path d="M 95.22 17.30 C 99.80 17.24 104.41 17.15 108.99 17.29 C 113.73 17.43 117.96 22.00 116.57 26.83 C 115.72 30.06 113.32 31.30 110.65 32.85 C 112.67 35.89 114.59 38.99 116.50 42.10 C 114.60 41.84 112.71 41.44 110.83 41.06 C 109.13 38.46 107.62 35.64 105.65 33.23 C 103.80 32.69 101.65 33.00 99.74 32.95 L 99.88 33.61 C 99.86 35.70 99.80 37.78 99.76 39.87 C 98.25 39.99 96.73 40.11 95.22 40.23 C 95.18 34.96 95.27 29.69 95.18 24.42 C 95.15 22.05 95.14 19.67 95.22 17.30 Z" fill="#ffffff" />
<path d="M 74.82 21.07 C 80.81 27.45 86.62 34.01 92.56 40.45 C 90.80 40.74 89.04 41.04 87.28 41.33 C 85.87 39.82 84.55 38.23 83.12 36.73 C 79.75 37.66 76.56 38.89 73.30 40.12 C 73.13 42.21 72.97 44.29 72.81 46.38 C 71.34 47.18 69.87 47.99 68.40 48.80 L 68.27 47.56 C 68.69 39.27 69.48 31.02 69.91 22.73 C 71.53 22.16 73.17 21.56 74.82 21.07 Z" fill="#ffffff" />
<path d="M 99.79 21.43 C 103.15 21.46 106.67 21.14 109.99 21.71 C 113.11 23.25 112.88 27.41 109.67 28.60 C 106.43 29.03 103.08 28.75 99.81 28.79 C 99.81 26.34 99.80 23.89 99.79 21.43 Z" fill="#0b66a2" />
<path d="M 129.77 22.25 C 131.18 22.95 132.64 23.56 134.09 24.19 C 131.74 30.10 129.16 35.91 126.86 41.83 C 126.27 43.06 125.69 44.28 125.12 45.51 C 123.72 44.93 122.32 44.35 120.92 43.77 C 123.74 36.54 126.82 29.42 129.77 22.25 Z" fill="#fafafa" />
<path d="M 73.78 26.06 L 74.15 26.57 C 73.99 29.62 73.90 32.66 74.07 35.72 C 73.69 35.86 73.32 36.00 72.94 36.14 C 72.97 32.75 73.18 29.40 73.78 26.06 Z" fill="#abb1b6" />
<path d="M 157.45 27.09 C 163.03 31.35 168.01 36.45 172.47 41.86 C 178.04 48.72 182.59 56.40 185.99 64.56 C 186.59 66.03 187.16 67.51 187.72 69.00 C 186.44 69.79 185.17 70.62 183.91 71.44 C 179.62 58.62 172.23 46.77 162.59 37.29 C 159.80 34.48 156.85 31.83 153.75 29.37 C 154.98 28.60 156.20 27.82 157.45 27.09 Z" fill="#d4d6d8" />
<path d="M 74.15 26.57 C 75.39 28.06 76.64 29.55 77.93 31.00 C 76.88 30.49 75.83 29.99 74.76 29.51 C 74.54 31.58 74.31 33.65 74.07 35.72 C 73.90 32.66 73.99 29.62 74.15 26.57 Z" fill="#4a7ea1" />
<path d="M 74.76 29.51 C 75.83 29.99 76.88 30.49 77.93 31.00 C 78.68 31.80 79.44 32.60 80.19 33.41 C 78.15 34.17 76.11 34.94 74.07 35.72 C 74.31 33.65 74.54 31.58 74.76 29.51 Z" fill="#2e82b2" />
<path d="M 60.05 33.96 C 62.05 36.39 61.87 39.16 61.27 42.08 C 60.10 43.82 58.83 45.50 57.54 47.15 L 57.14 47.58 L 56.04 48.59 C 54.89 49.49 53.78 50.22 53.13 51.58 L 54.00 52.47 C 55.42 53.77 56.87 55.03 58.32 56.30 C 57.33 57.27 56.33 58.24 55.31 59.18 L 54.80 59.63 C 51.26 56.44 47.83 53.13 44.20 50.03 C 42.22 48.25 40.28 46.43 38.30 44.64 C 41.64 40.88 44.90 36.99 48.49 33.46 C 51.68 30.38 57.18 30.50 60.05 33.96 Z" fill="#fbfcfc" />
<path d="M 99.74 32.95 C 101.65 33.00 103.80 32.69 105.65 33.23 C 107.62 35.64 109.13 38.46 110.83 41.06 C 112.71 41.44 114.60 41.84 116.50 42.10 C 117.37 42.04 118.24 41.90 119.10 41.79 C 119.33 43.35 119.57 44.91 119.81 46.47 C 118.44 46.96 117.08 47.46 115.71 47.95 C 108.86 45.96 101.83 45.32 94.72 45.85 C 97.82 45.10 100.90 44.24 104.02 43.54 C 103.25 39.66 102.08 36.89 99.88 33.61 L 99.74 32.95 Z" fill="#0e6ca8" />
<path d="M 147.05 32.68 C 153.00 34.26 156.97 38.90 159.75 44.15 C 158.70 45.01 157.65 45.87 156.60 46.73 C 154.00 42.53 149.90 36.38 144.14 37.42 C 145.10 41.95 149.26 44.28 151.81 48.40 C 150.42 47.86 149.03 47.31 147.65 46.75 C 146.93 46.86 146.21 46.96 145.50 47.07 C 142.84 44.09 139.31 41.40 139.63 36.96 C 140.09 33.42 143.82 31.81 147.05 32.68 Z" fill="#f1f2f2" />
<path d="M 52.08 35.94 C 55.21 34.63 58.43 37.84 57.03 40.90 C 55.13 43.83 52.39 46.25 50.09 48.88 C 48.25 47.16 46.40 45.46 44.53 43.76 C 47.02 41.18 49.23 38.13 52.08 35.94 Z" fill="#2185ba" />
<path d="M 177.07 36.19 C 182.65 42.89 187.40 50.30 191.02 58.23 C 190.06 57.61 189.09 57.01 188.10 56.43 C 188.57 59.44 188.99 62.45 189.26 65.49 C 188.17 65.18 187.08 64.87 185.99 64.56 C 182.59 56.40 178.04 48.72 172.47 41.86 C 173.94 39.91 175.42 37.99 177.07 36.19 Z" fill="#053a61" />
<path d="M 83.12 36.73 C 84.55 38.23 85.87 39.82 87.28 41.33 L 88.12 42.09 C 89.84 42.37 91.59 42.58 93.32 42.81 C 91.96 44.28 90.55 45.69 88.93 46.88 C 85.05 47.81 81.23 48.95 77.58 50.60 C 78.39 49.24 79.22 47.88 80.04 46.53 C 78.69 45.38 77.30 44.28 75.87 43.22 C 75.22 44.14 74.58 45.06 73.93 45.98 C 73.72 44.03 73.51 42.07 73.30 40.12 C 76.56 38.89 79.75 37.66 83.12 36.73 Z" fill="#2688bc" />
<path d="M 63.90 38.28 C 64.93 38.44 65.96 38.65 66.99 38.87 C 67.43 41.77 67.81 44.67 68.27 47.56 L 68.40 48.80 C 69.87 47.99 71.34 47.18 72.81 46.38 C 72.97 44.29 73.13 42.21 73.30 40.12 C 73.51 42.07 73.72 44.03 73.93 45.98 C 74.58 45.06 75.22 44.14 75.87 43.22 C 77.30 44.28 78.69 45.38 80.04 46.53 C 79.22 47.88 78.39 49.24 77.58 50.60 C 71.11 53.66 65.27 57.77 60.37 63.00 C 59.32 63.13 58.23 63.29 57.17 63.29 C 55.50 62.71 55.71 60.58 55.31 59.18 C 56.33 58.24 57.33 57.27 58.32 56.30 C 56.87 55.03 55.42 53.77 54.00 52.47 C 55.43 51.62 55.93 50.18 56.04 48.59 L 57.14 47.58 L 57.54 47.15 C 58.83 45.50 60.10 43.82 61.27 42.08 C 62.13 40.80 62.99 39.53 63.90 38.28 Z" fill="#3296c4" />
<path d="M 162.59 37.29 C 172.23 46.77 179.62 58.62 183.91 71.44 C 185.16 75.30 186.22 79.21 186.93 83.21 C 185.21 87.36 185.98 91.62 184.79 95.86 C 180.73 110.77 174.03 125.31 164.59 137.59 C 162.56 140.68 160.21 143.39 157.60 146.00 C 155.86 144.33 154.14 142.75 151.84 141.86 C 152.85 144.09 154.61 145.57 156.40 147.16 C 153.43 147.00 150.47 146.93 147.50 146.98 C 148.87 148.73 150.32 150.38 152.03 151.80 C 150.93 152.30 149.83 152.79 148.73 153.28 C 147.27 151.84 146.23 150.31 144.03 150.09 C 144.98 151.77 146.13 153.32 147.39 154.78 C 146.33 155.31 145.28 155.84 144.24 156.39 C 143.06 157.19 141.97 158.10 140.88 159.01 C 141.00 158.26 141.12 157.50 141.22 156.74 C 140.82 155.74 140.34 154.78 139.86 153.82 C 139.50 155.05 139.16 156.28 138.83 157.52 C 138.18 159.13 137.42 160.68 136.65 162.24 C 135.75 160.54 134.91 158.93 133.21 157.90 C 132.97 160.15 132.89 162.41 132.81 164.68 C 131.09 163.51 129.37 162.35 127.61 161.26 L 126.84 162.45 C 126.33 163.25 125.83 164.06 125.37 164.88 C 122.29 163.14 119.87 164.41 116.77 165.21 L 116.80 166.66 C 116.38 168.19 115.96 169.92 115.05 171.24 C 114.06 171.29 113.17 170.99 112.20 170.75 C 110.77 170.34 109.34 169.91 107.91 169.48 C 109.73 168.05 111.75 168.13 113.93 167.76 L 113.91 165.96 C 111.50 166.35 109.09 166.74 106.68 167.12 C 106.96 170.15 107.29 173.17 108.01 176.13 L 108.26 177.04 C 110.14 177.23 112.00 177.33 113.89 177.43 C 106.66 179.36 99.54 181.77 92.27 183.57 C 87.47 184.71 82.90 184.12 78.28 185.98 C 65.78 182.97 53.98 176.91 44.07 168.74 C 48.18 168.09 51.28 169.85 55.30 170.35 C 59.74 170.87 64.01 171.26 68.35 169.88 C 69.60 167.52 70.84 165.14 72.18 162.83 C 72.51 162.41 72.84 161.99 73.18 161.58 L 74.00 162.72 C 74.70 163.90 75.73 164.67 76.78 165.50 C 75.90 167.88 75.10 170.27 74.54 172.74 C 77.14 171.37 77.32 168.48 78.36 166.00 C 79.72 166.01 81.08 166.01 82.44 166.00 C 80.41 164.36 78.21 163.41 75.70 162.76 C 84.39 162.81 93.19 160.67 101.25 157.55 C 98.82 157.05 96.49 156.47 94.34 155.19 C 105.03 155.86 115.68 154.21 125.22 149.22 C 140.02 141.68 150.87 127.30 154.04 110.99 C 154.36 109.13 154.59 107.26 154.86 105.40 C 155.44 103.30 156.04 101.21 156.58 99.11 C 156.81 101.15 157.08 103.19 157.38 105.23 C 163.13 92.92 165.52 79.49 166.24 66.00 C 166.34 61.33 165.64 56.60 165.03 51.98 C 164.36 46.97 162.56 42.42 162.59 37.29 Z" fill="#053e69" />
<path d="M 135.68 43.17 C 138.61 48.16 141.41 52.64 147.17 54.67 C 147.69 53.69 149.06 52.60 148.57 51.40 C 147.94 49.79 146.62 48.36 145.50 47.07 C 146.21 46.96 146.93 46.86 147.65 46.75 C 149.03 47.31 150.42 47.86 151.81 48.40 C 152.78 50.36 153.92 52.75 153.05 54.94 C 152.22 57.14 150.39 58.67 147.99 58.74 C 144.79 58.92 142.31 57.46 139.77 55.72 C 136.50 53.02 134.14 49.70 132.19 45.97 C 132.56 45.46 132.94 44.97 133.33 44.48 C 134.10 44.03 134.89 43.59 135.68 43.17 Z" fill="#dddfdf" />
<path d="M 31.09 44.07 C 32.31 48.36 32.08 52.60 31.93 57.00 C 31.69 62.38 34.06 66.32 35.51 71.39 C 36.66 75.53 39.05 79.01 41.88 82.18 C 43.41 83.97 45.53 84.46 47.64 85.28 C 46.85 88.31 46.30 91.37 45.63 94.42 C 44.77 96.55 44.00 98.68 43.31 100.87 C 39.38 98.10 35.71 94.98 31.79 92.18 C 29.07 90.20 26.58 88.11 24.82 85.20 C 21.46 79.62 19.62 72.77 17.73 66.57 C 21.03 58.46 25.57 50.86 31.09 44.07 Z" fill="#0d6ba7" />
<path d="M 88.93 46.88 C 90.86 46.49 92.78 46.18 94.72 45.85 C 101.83 45.32 108.86 45.96 115.71 47.95 C 122.80 49.98 129.15 53.56 134.91 58.11 C 138.00 60.75 140.86 63.66 143.42 66.81 C 142.46 67.72 141.49 68.63 140.53 69.55 C 139.82 68.60 139.09 67.67 138.34 66.75 C 134.99 62.98 130.98 59.73 126.70 57.06 C 120.81 53.42 114.29 51.19 107.47 50.07 C 108.39 63.04 111.12 75.71 116.51 87.58 C 118.55 92.01 120.90 96.31 123.63 100.34 L 124.46 101.52 C 123.19 102.37 121.91 103.22 120.64 104.08 C 120.09 103.22 119.55 102.36 119.02 101.49 C 117.14 101.50 115.27 101.50 113.39 101.54 C 102.64 101.41 91.88 101.52 81.13 101.52 C 78.40 105.97 75.38 110.17 72.07 114.20 C 70.91 113.07 69.75 111.93 68.59 110.80 C 75.49 103.42 80.79 94.85 84.82 85.62 C 86.95 80.75 88.51 75.75 89.84 70.62 C 91.60 63.89 92.48 57.03 93.11 50.12 C 89.41 50.63 85.85 51.45 82.34 52.75 C 73.63 55.96 66.01 61.62 60.22 68.85 C 58.97 70.48 57.78 72.16 56.70 73.90 C 55.17 76.48 53.83 79.17 52.69 81.95 C 51.41 85.41 50.52 89.04 49.74 92.65 C 48.39 97.44 48.82 102.14 48.80 107.04 C 48.90 109.21 47.90 110.83 46.88 112.65 C 45.49 106.64 45.30 100.56 45.63 94.42 C 46.30 91.37 46.85 88.31 47.64 85.28 C 48.42 82.60 49.43 79.98 50.58 77.43 C 53.14 72.16 56.31 67.25 60.37 63.00 C 65.27 57.77 71.11 53.66 77.58 50.60 C 81.23 48.95 85.05 47.81 88.93 46.88 Z" fill="#fafafa" />
<path d="M 57.54 47.15 L 57.14 47.58 L 57.54 47.15 Z" fill="#49677e" />
<path d="M 40.23 49.63 C 41.56 49.72 42.89 49.86 44.20 50.03 C 47.83 53.13 51.26 56.44 54.80 59.63 L 55.31 59.18 C 55.71 60.58 55.50 62.71 57.17 63.29 C 58.23 63.29 59.32 63.13 60.37 63.00 C 56.31 67.25 53.14 72.16 50.58 77.43 C 47.52 75.36 44.68 73.45 42.99 70.01 C 39.87 63.95 39.94 56.28 40.23 49.63 Z" fill="#2184b9" />
<path d="M 56.04 48.59 C 55.93 50.18 55.43 51.62 54.00 52.47 L 53.13 51.58 C 53.78 50.22 54.89 49.49 56.04 48.59 Z" fill="#517b96" />
<path d="M 104.70 49.53 C 105.08 60.83 106.68 72.00 110.33 82.73 C 108.34 85.01 106.66 87.32 103.92 88.76 C 98.90 91.45 95.81 95.46 90.63 97.58 C 88.53 98.56 85.79 97.52 83.61 97.14 C 91.62 82.41 94.87 66.17 95.54 49.54 C 98.60 49.35 101.64 49.44 104.70 49.53 Z" fill="#ee3f47" />
<path d="M 107.47 50.07 C 114.29 51.19 120.81 53.42 126.70 57.06 C 125.37 60.61 125.03 64.26 124.84 68.02 C 124.67 73.96 121.62 78.01 119.74 83.86 C 119.23 85.79 118.05 86.51 116.51 87.58 C 111.12 75.71 108.39 63.04 107.47 50.07 Z" fill="#0b65a1" />
<path d="M 93.11 50.12 C 92.48 57.03 91.60 63.89 89.84 70.62 L 88.46 70.92 C 84.60 78.04 76.73 80.88 69.00 80.76 C 65.00 80.85 61.37 79.66 57.65 78.33 C 57.34 76.85 57.01 75.37 56.70 73.90 C 57.78 72.16 58.97 70.48 60.22 68.85 C 64.41 70.68 67.91 72.65 72.65 71.64 C 76.49 70.59 80.52 68.01 82.34 64.37 C 84.03 60.47 85.24 56.43 82.34 52.75 C 85.85 51.45 89.41 50.63 93.11 50.12 Z" fill="#2688bb" />
<path d="M 82.34 52.75 C 85.24 56.43 84.03 60.47 82.34 64.37 C 80.52 68.01 76.49 70.59 72.65 71.64 C 67.91 72.65 64.41 70.68 60.22 68.85 C 66.01 61.62 73.63 55.96 82.34 52.75 Z" fill="#3296c4" />
<path d="M 188.10 56.43 C 189.09 57.01 190.06 57.61 191.02 58.23 C 196.15 69.18 199.26 81.36 200.00 93.43 L 200.00 110.91 L 199.52 109.35 C 198.19 104.64 198.86 100.08 198.58 94.96 C 197.34 99.08 196.93 103.32 195.27 107.32 C 194.95 104.20 194.71 101.07 194.51 97.93 C 194.34 101.22 193.88 104.30 192.87 107.44 C 193.60 94.34 192.24 81.36 187.72 69.00 C 187.16 67.51 186.59 66.03 185.99 64.56 C 187.08 64.87 188.17 65.18 189.26 65.49 C 188.99 62.45 188.57 59.44 188.10 56.43 Z" fill="#063153" />
<path d="M 9.72 57.35 C 12.09 57.94 14.44 58.62 16.81 59.22 C 13.08 66.68 10.58 74.64 8.96 82.82 C 8.13 85.95 6.92 88.92 5.64 91.89 C 4.43 89.28 3.74 87.69 0.97 86.57 C 2.36 76.45 5.32 66.57 9.72 57.35 Z" fill="#095c97" />
<path d="M 126.70 57.06 C 130.98 59.73 134.99 62.98 138.34 66.75 C 137.91 72.66 136.10 78.14 134.70 83.85 C 133.59 88.23 131.69 92.45 129.15 96.19 C 127.77 98.29 125.76 99.22 123.63 100.34 C 120.90 96.31 118.55 92.01 116.51 87.58 C 118.05 86.51 119.23 85.79 119.74 83.86 C 121.62 78.01 124.67 73.96 124.84 68.02 C 125.03 64.26 125.37 60.61 126.70 57.06 Z" fill="#075993" />
<path d="M 17.73 66.57 C 19.62 72.77 21.46 79.62 24.82 85.20 C 26.58 88.11 29.07 90.20 31.79 92.18 C 35.71 94.98 39.38 98.10 43.31 100.87 C 44.00 98.68 44.77 96.55 45.63 94.42 C 45.30 100.56 45.49 106.64 46.88 112.65 C 47.39 115.07 48.10 117.45 48.95 119.77 C 48.50 120.72 48.04 121.67 47.58 122.63 C 43.13 120.74 38.59 118.94 34.32 116.69 C 30.84 114.85 28.07 112.40 24.93 110.11 C 22.19 108.08 19.52 106.35 17.26 103.75 C 14.44 100.64 13.01 96.32 11.53 92.44 C 12.16 83.59 14.45 74.79 17.73 66.57 Z" fill="#095e99" />
<path d="M 138.34 66.75 C 139.09 67.67 139.82 68.60 140.53 69.55 C 145.16 75.72 148.21 82.37 150.01 89.87 C 152.01 101.29 150.85 112.79 145.74 123.26 C 143.90 121.86 142.05 120.44 140.28 118.96 C 134.30 113.82 129.07 107.92 124.46 101.52 L 123.63 100.34 C 125.76 99.22 127.77 98.29 129.15 96.19 C 131.69 92.45 133.59 88.23 134.70 83.85 C 136.10 78.14 137.91 72.66 138.34 66.75 Z" fill="#054e83" />
<path d="M 143.42 66.81 C 149.02 73.96 152.78 82.54 154.27 91.50 C 154.98 96.03 154.93 100.81 154.86 105.40 C 154.59 107.26 154.36 109.13 154.04 110.99 C 153.56 110.03 153.08 109.07 152.60 108.10 C 152.07 109.01 151.55 109.91 151.03 110.82 C 151.53 107.27 152.26 103.58 152.20 99.99 C 152.11 96.38 150.96 93.30 150.01 89.87 C 148.21 82.37 145.16 75.72 140.53 69.55 C 141.49 68.63 142.46 67.72 143.42 66.81 Z" fill="#e4e4e4" />
<path d="M 187.72 69.00 C 192.24 81.36 193.60 94.34 192.87 107.44 C 191.85 118.13 189.32 128.51 184.90 138.31 C 184.71 136.65 184.42 135.01 184.10 133.37 C 181.89 137.14 180.33 141.29 177.97 144.95 C 177.32 145.96 176.33 146.19 175.35 146.81 C 186.87 127.84 191.24 105.04 186.93 83.21 C 186.22 79.21 185.16 75.30 183.91 71.44 C 185.17 70.62 186.44 69.79 187.72 69.00 Z" fill="#bfc1c2" />
<path d="M 88.46 70.92 L 89.84 70.62 C 88.51 75.75 86.95 80.75 84.82 85.62 C 78.65 87.10 73.51 89.79 67.07 89.06 C 61.45 88.31 55.67 87.39 52.69 81.95 C 53.83 79.17 55.17 76.48 56.70 73.90 C 57.01 75.37 57.34 76.85 57.65 78.33 C 61.37 79.66 65.00 80.85 69.00 80.76 C 76.73 80.88 84.60 78.04 88.46 70.92 Z" fill="#1b7db4" />
<path d="M 52.69 81.95 C 55.67 87.39 61.45 88.31 67.07 89.06 C 73.51 89.79 78.65 87.10 84.82 85.62 C 80.79 94.85 75.49 103.42 68.59 110.80 C 67.02 112.48 65.40 114.13 63.73 115.71 C 59.51 113.71 55.69 112.59 50.98 113.43 C 49.11 106.59 49.12 99.66 49.74 92.65 C 50.52 89.04 51.41 85.41 52.69 81.95 Z" fill="#0d6ba7" />
<path d="M 8.96 82.82 C 7.22 91.64 7.03 100.63 7.83 109.57 C 9.38 127.80 17.05 145.19 28.54 159.34 C 25.85 159.18 23.54 158.05 20.99 157.33 C 20.33 157.60 19.73 158.14 19.17 158.93 C 12.57 149.87 7.43 139.53 4.24 128.78 C 2.00 121.49 0.89 113.75 0.00 106.15 L 0.00 94.51 C 0.25 91.85 0.60 89.21 0.97 86.57 C 3.74 87.69 4.43 89.28 5.64 91.89 C 6.92 88.92 8.13 85.95 8.96 82.82 Z" fill="#054b7f" />
<path d="M 110.33 82.73 C 112.33 88.59 114.92 94.18 117.93 99.58 C 106.06 99.58 94.19 99.61 82.32 99.55 C 82.75 98.75 83.18 97.94 83.61 97.14 C 85.79 97.52 88.53 98.56 90.63 97.58 C 95.81 95.46 98.90 91.45 103.92 88.76 C 106.66 87.32 108.34 85.01 110.33 82.73 Z" fill="#e03c43" />
<path d="M 186.93 83.21 C 191.24 105.04 186.87 127.84 175.35 146.81 C 168.11 157.63 159.30 167.19 148.29 174.27 C 136.58 182.03 123.25 186.45 109.37 188.30 C 98.90 189.03 88.47 188.73 78.28 185.98 C 82.90 184.12 87.47 184.71 92.27 183.57 C 99.54 181.77 106.66 179.36 113.89 177.43 C 112.00 177.33 110.14 177.23 108.26 177.04 L 108.01 176.13 C 110.15 175.51 114.96 175.98 115.67 173.37 C 113.32 173.55 110.98 173.79 108.62 173.95 C 109.30 172.24 110.75 171.65 112.20 170.75 C 113.17 170.99 114.06 171.29 115.05 171.24 C 115.96 169.92 116.38 168.19 116.80 166.66 C 117.58 169.45 117.97 172.57 120.26 174.59 C 120.12 173.01 119.96 171.43 119.78 169.85 C 122.71 169.36 124.10 171.37 126.58 172.43 C 125.85 171.28 125.10 170.14 124.34 169.02 C 124.66 167.64 125.00 166.26 125.37 164.88 C 125.83 164.06 126.33 163.25 126.84 162.45 C 128.15 164.90 129.12 169.32 132.04 170.24 C 131.37 168.33 130.58 166.47 129.81 164.61 C 131.30 165.59 132.80 166.57 134.30 167.55 C 134.34 165.69 134.38 163.84 134.40 161.99 C 135.57 163.92 136.42 165.81 138.54 166.92 C 137.97 165.33 137.36 163.76 136.65 162.24 C 137.42 160.68 138.18 159.13 138.83 157.52 C 139.44 160.09 140.10 162.66 140.86 165.19 C 141.60 163.93 141.86 162.46 141.64 160.79 C 142.45 160.15 143.27 159.52 144.09 158.90 C 145.52 159.37 146.96 159.80 148.41 160.20 C 147.09 158.85 145.67 157.62 144.24 156.39 C 145.28 155.84 146.33 155.31 147.39 154.78 C 148.65 156.11 149.89 156.93 151.61 157.61 C 150.74 156.11 149.82 154.64 148.73 153.28 C 149.83 152.79 150.93 152.30 152.03 151.80 C 153.10 152.61 154.21 153.36 155.35 154.08 C 154.75 151.45 152.81 150.22 150.97 148.48 C 154.11 148.69 156.92 149.51 159.91 148.27 C 159.15 147.51 158.38 146.75 157.60 146.00 C 160.21 143.39 162.56 140.68 164.59 137.59 C 174.03 125.31 180.73 110.77 184.79 95.86 C 185.98 91.62 185.21 87.36 186.93 83.21 Z" fill="#063153" />
<path d="M 150.01 89.87 C 150.96 93.30 152.11 96.38 152.20 99.99 C 152.26 103.58 151.53 107.27 151.03 110.82 C 151.55 109.91 152.07 109.01 152.60 108.10 C 153.08 109.07 153.56 110.03 154.04 110.99 C 150.87 127.30 140.02 141.68 125.22 149.22 C 115.68 154.21 105.03 155.86 94.34 155.19 C 88.67 154.03 83.11 152.95 77.84 150.45 C 79.13 149.61 80.42 148.76 81.71 147.92 C 92.73 152.02 104.66 152.55 115.89 148.90 C 120.28 148.20 121.16 141.86 121.83 138.30 C 123.61 137.17 125.26 135.94 126.88 134.60 L 127.05 134.48 C 127.21 137.58 127.24 140.65 127.10 143.76 C 133.53 139.61 138.40 134.78 142.80 128.54 C 141.70 127.58 140.60 126.63 139.49 125.68 C 138.25 124.58 137.02 123.46 135.83 122.32 C 137.31 121.20 138.80 120.08 140.28 118.96 C 142.05 120.44 143.90 121.86 145.74 123.26 C 150.85 112.79 152.01 101.29 150.01 89.87 Z" fill="#d2d4d5" />
<path d="M 11.53 92.44 C 13.01 96.32 14.44 100.64 17.26 103.75 C 19.52 106.35 22.19 108.08 24.93 110.11 C 28.07 112.40 30.84 114.85 34.32 116.69 C 38.59 118.94 43.13 120.74 47.58 122.63 C 48.04 121.67 48.50 120.72 48.95 119.77 C 52.65 129.64 59.29 138.15 67.67 144.50 C 66.48 145.24 65.69 146.01 64.19 145.78 C 59.62 145.37 55.18 144.42 50.55 144.65 C 48.78 143.16 45.94 140.30 43.95 143.10 C 43.48 145.55 46.02 147.77 46.95 149.97 C 46.49 151.91 45.03 150.69 44.24 149.76 C 43.04 148.38 42.05 146.79 41.01 145.28 C 40.87 146.08 40.72 146.87 40.57 147.66 L 39.45 149.73 C 34.33 148.55 30.13 145.78 25.34 143.83 C 24.34 143.52 23.34 143.22 22.33 142.94 C 16.14 132.09 12.95 120.12 11.53 107.77 C 11.43 102.67 11.37 97.54 11.53 92.44 Z" fill="#055188" />
<path d="M 49.74 92.65 C 49.12 99.66 49.11 106.59 50.98 113.43 C 51.88 116.88 53.21 120.16 54.71 123.38 C 57.83 120.96 60.86 118.44 63.73 115.71 C 65.40 114.13 67.02 112.48 68.59 110.80 C 69.75 111.93 70.91 113.07 72.07 114.20 C 67.70 119.53 62.69 124.24 57.30 128.53 C 61.73 135.05 66.58 139.85 73.19 144.15 C 72.64 139.02 72.94 134.00 75.31 129.33 C 79.14 121.39 86.69 116.39 95.19 114.61 C 102.87 113.63 110.45 115.11 116.76 119.71 C 121.95 123.43 125.07 128.54 126.88 134.60 C 125.26 135.94 123.61 137.17 121.83 138.30 C 121.84 132.73 120.42 128.43 116.88 124.13 C 109.55 115.92 96.69 114.38 87.64 120.66 C 80.50 125.52 77.20 134.03 79.30 142.45 C 80.05 144.30 80.88 146.10 81.71 147.92 C 80.42 148.76 79.13 149.61 77.84 150.45 C 74.27 148.79 70.86 146.81 67.67 144.50 C 59.29 138.15 52.65 129.64 48.95 119.77 C 48.10 117.45 47.39 115.07 46.88 112.65 C 47.90 110.83 48.90 109.21 48.80 107.04 C 48.82 102.14 48.39 97.44 49.74 92.65 Z" fill="#e2e3e3" />
<path d="M 198.58 94.96 C 198.86 100.08 198.19 104.64 199.52 109.35 C 199.63 114.20 198.48 119.27 197.37 124.00 C 192.53 143.99 181.30 162.30 165.74 175.74 C 149.61 189.85 128.91 198.45 107.54 200.00 L 93.13 200.00 C 92.41 199.96 91.69 199.91 90.97 199.84 C 90.99 198.86 91.01 197.88 91.03 196.90 C 94.57 197.15 97.85 196.39 101.24 195.39 C 99.14 195.03 97.04 194.69 94.94 194.35 C 99.23 194.17 103.34 194.38 107.46 192.92 C 122.72 191.55 137.51 186.74 150.38 178.38 C 165.33 168.71 177.69 154.63 184.90 138.31 C 189.32 128.51 191.85 118.13 192.87 107.44 C 193.88 104.30 194.34 101.22 194.51 97.93 C 194.71 101.07 194.95 104.20 195.27 107.32 C 196.93 103.32 197.34 99.08 198.58 94.96 Z" fill="#05263f" />
<path d="M 9.81 95.80 L 11.11 96.38 C 11.60 100.13 11.08 103.99 11.53 107.77 C 12.95 120.12 16.14 132.09 22.33 142.94 C 26.81 151.13 32.68 158.79 39.62 165.05 C 37.58 164.94 35.54 164.85 33.50 164.78 C 31.82 162.99 30.14 161.20 28.54 159.34 C 17.05 145.19 9.38 127.80 7.83 109.57 C 10.03 105.07 9.42 100.61 9.81 95.80 Z" fill="#d0d2d3" />
<path d="M 81.13 101.52 C 91.88 101.52 102.64 101.41 113.39 101.54 C 109.83 103.26 106.31 104.70 103.33 107.38 C 100.23 110.11 96.61 111.75 93.02 113.71 L 95.19 114.61 C 86.69 116.39 79.14 121.39 75.31 129.33 C 72.94 134.00 72.64 139.02 73.19 144.15 C 66.58 139.85 61.73 135.05 57.30 128.53 C 62.69 124.24 67.70 119.53 72.07 114.20 C 75.38 110.17 78.40 105.97 81.13 101.52 Z" fill="#de3d43" />
<path d="M 113.39 101.54 C 115.27 101.50 117.14 101.50 119.02 101.49 C 119.55 102.36 120.09 103.22 120.64 104.08 C 122.58 107.10 124.71 110.01 126.97 112.81 C 126.22 113.97 125.50 115.14 124.78 116.32 C 124.26 116.07 123.73 115.82 123.21 115.57 C 123.05 116.19 122.89 116.81 122.73 117.43 C 122.36 117.23 122.00 117.02 121.64 116.82 C 120.20 118.19 118.60 118.98 116.76 119.71 C 110.45 115.11 102.87 113.63 95.19 114.61 L 93.02 113.71 C 96.61 111.75 100.23 110.11 103.33 107.38 C 106.31 104.70 109.83 103.26 113.39 101.54 Z" fill="#ca363d" />
<path d="M 124.46 101.52 C 129.07 107.92 134.30 113.82 140.28 118.96 C 138.80 120.08 137.31 121.20 135.83 122.32 C 132.69 119.32 129.76 116.14 126.97 112.81 C 124.71 110.01 122.58 107.10 120.64 104.08 C 121.91 103.22 123.19 102.37 124.46 101.52 Z" fill="#e2e3e3" />
<path d="M 0.00 106.15 C 0.89 113.75 2.00 121.49 4.24 128.78 C 7.43 139.53 12.57 149.87 19.17 158.93 C 27.62 170.62 38.65 180.35 51.19 187.46 C 63.45 194.31 76.97 198.61 90.97 199.84 C 91.69 199.91 92.41 199.96 93.13 200.00 L 0.00 200.00 L 0.00 106.15 Z" fill="#ffffff" />
<path d="M 199.52 109.35 L 200.00 110.91 L 200.00 200.00 L 107.54 200.00 C 128.91 198.45 149.61 189.85 165.74 175.74 C 181.30 162.30 192.53 143.99 197.37 124.00 C 198.48 119.27 199.63 114.20 199.52 109.35 Z" fill="#ffffff" />
<path d="M 63.73 115.71 C 60.86 118.44 57.83 120.96 54.71 123.38 C 53.21 120.16 51.88 116.88 50.98 113.43 C 55.69 112.59 59.51 113.71 63.73 115.71 Z" fill="#095d98" />
<path d="M 126.97 112.81 C 129.76 116.14 132.69 119.32 135.83 122.32 C 137.02 123.46 138.25 124.58 139.49 125.68 C 136.10 130.02 132.05 132.36 127.05 134.48 L 126.88 134.60 C 125.07 128.54 121.95 123.43 116.76 119.71 C 118.60 118.98 120.20 118.19 121.64 116.82 C 122.00 117.02 122.36 117.23 122.73 117.43 C 122.89 116.81 123.05 116.19 123.21 115.57 C 123.73 115.82 124.26 116.07 124.78 116.32 C 125.50 115.14 126.22 113.97 126.97 112.81 Z" fill="#ac3036" />
<path d="M 116.88 124.13 C 117.00 125.72 117.13 127.31 117.26 128.90 C 115.08 130.44 112.98 132.05 110.92 133.73 C 107.16 133.05 105.72 134.22 102.89 136.31 L 101.56 137.06 C 102.51 134.94 103.41 132.83 103.76 130.52 C 102.75 127.79 101.54 125.22 100.09 122.69 C 98.28 125.62 97.04 128.51 96.35 131.90 C 97.40 134.23 98.57 136.50 99.64 138.82 C 96.72 138.09 95.93 134.32 93.03 133.65 C 90.61 132.83 86.97 135.06 88.09 137.88 C 88.79 140.42 90.66 140.80 93.02 140.39 C 92.04 140.73 91.07 141.10 90.10 141.47 C 91.01 141.90 91.92 142.32 92.83 142.75 C 87.96 143.25 83.93 144.99 79.30 142.45 C 77.20 134.03 80.50 125.52 87.64 120.66 C 96.69 114.38 109.55 115.92 116.88 124.13 Z" fill="#05528a" />
<path d="M 100.09 122.69 C 101.54 125.22 102.75 127.79 103.76 130.52 C 101.04 130.30 98.86 130.90 96.35 131.90 C 97.04 128.51 98.28 125.62 100.09 122.69 Z" fill="#ceab5b" />
<path d="M 116.88 124.13 C 120.42 128.43 121.84 132.73 121.83 138.30 C 121.16 141.86 120.28 148.20 115.89 148.90 C 104.66 152.55 92.73 152.02 81.71 147.92 C 80.88 146.10 80.05 144.30 79.30 142.45 C 83.93 144.99 87.96 143.25 92.83 142.75 C 91.92 142.32 91.01 141.90 90.10 141.47 C 91.07 141.10 92.04 140.73 93.02 140.39 L 93.82 140.13 C 93.01 138.92 92.21 137.70 91.42 136.47 C 94.81 136.37 95.22 136.91 97.06 139.46 C 98.18 139.50 99.30 139.51 100.42 139.53 C 100.79 138.70 101.17 137.88 101.56 137.06 L 102.89 136.31 C 102.42 137.71 101.94 139.10 101.48 140.50 C 103.73 138.38 105.03 136.16 108.54 136.48 C 107.76 137.74 106.96 139.00 106.16 140.26 C 108.05 140.39 109.99 141.26 111.28 139.33 C 112.91 137.15 111.72 135.88 110.92 133.73 C 112.98 132.05 115.08 130.44 117.26 128.90 C 117.13 127.31 117.00 125.72 116.88 124.13 Z" fill="#054b7e" />
<path d="M 139.49 125.68 C 140.60 126.63 141.70 127.58 142.80 128.54 C 138.40 134.78 133.53 139.61 127.10 143.76 C 127.24 140.65 127.21 137.58 127.05 134.48 C 132.05 132.36 136.10 130.02 139.49 125.68 Z" fill="#95292e" />
<path d="M 103.76 130.52 C 103.41 132.83 102.51 134.94 101.56 137.06 C 101.17 137.88 100.79 138.70 100.42 139.53 C 99.30 139.51 98.18 139.50 97.06 139.46 C 95.22 136.91 94.81 136.37 91.42 136.47 C 92.21 137.70 93.01 138.92 93.82 140.13 L 93.02 140.39 C 90.66 140.80 88.79 140.42 88.09 137.88 C 86.97 135.06 90.61 132.83 93.03 133.65 C 95.93 134.32 96.72 138.09 99.64 138.82 C 98.57 136.50 97.40 134.23 96.35 131.90 C 98.86 130.90 101.04 130.30 103.76 130.52 Z" fill="#c19b52" />
<path d="M 110.92 133.73 C 111.72 135.88 112.91 137.15 111.28 139.33 C 109.99 141.26 108.05 140.39 106.16 140.26 C 106.96 139.00 107.76 137.74 108.54 136.48 C 105.03 136.16 103.73 138.38 101.48 140.50 C 101.94 139.10 102.42 137.71 102.89 136.31 C 105.72 134.22 107.16 133.05 110.92 133.73 Z" fill="#ae8d4e" />
<path d="M 184.10 133.37 C 184.42 135.01 184.71 136.65 184.90 138.31 C 177.69 154.63 165.33 168.71 150.38 178.38 C 137.51 186.74 122.72 191.55 107.46 192.92 C 99.75 193.20 92.15 193.16 84.55 191.69 C 92.88 188.11 100.81 190.47 109.37 188.30 C 123.25 186.45 136.58 182.03 148.29 174.27 C 159.30 167.19 168.11 157.63 175.35 146.81 C 176.33 146.19 177.32 145.96 177.97 144.95 C 180.33 141.29 181.89 137.14 184.10 133.37 Z" fill="#aaabae" />
<path d="M 100.05 140.73 C 100.85 141.75 101.60 142.79 102.37 143.83 C 101.56 144.63 100.74 145.42 99.92 146.21 C 99.28 145.37 98.65 144.53 98.03 143.67 C 98.67 142.67 99.35 141.69 100.05 140.73 Z" fill="#857750" />
<path d="M 50.55 144.65 C 50.84 145.94 51.12 147.23 51.38 148.52 C 49.39 146.48 48.32 144.15 45.23 143.71 C 46.33 145.81 47.66 147.86 48.53 150.06 C 48.58 151.85 47.68 152.52 46.09 152.90 C 43.38 152.11 42.04 149.87 40.57 147.66 C 40.72 146.87 40.87 146.08 41.01 145.28 C 42.05 146.79 43.04 148.38 44.24 149.76 C 45.03 150.69 46.49 151.91 46.95 149.97 C 46.02 147.77 43.48 145.55 43.95 143.10 C 45.94 140.30 48.78 143.16 50.55 144.65 Z" fill="#aab6bf" />
<path d="M 151.84 141.86 C 154.14 142.75 155.86 144.33 157.60 146.00 C 158.38 146.75 159.15 147.51 159.91 148.27 C 156.92 149.51 154.11 148.69 150.97 148.48 C 152.81 150.22 154.75 151.45 155.35 154.08 C 154.21 153.36 153.10 152.61 152.03 151.80 C 150.32 150.38 148.87 148.73 147.50 146.98 C 150.47 146.93 153.43 147.00 156.40 147.16 C 154.61 145.57 152.85 144.09 151.84 141.86 Z" fill="#919ba3" />
<path d="M 22.33 142.94 C 23.34 143.22 24.34 143.52 25.34 143.83 C 30.13 145.78 34.33 148.55 39.45 149.73 L 40.57 147.66 C 42.04 149.87 43.38 152.11 46.09 152.90 C 47.68 152.52 48.58 151.85 48.53 150.06 C 47.66 147.86 46.33 145.81 45.23 143.71 C 48.32 144.15 49.39 146.48 51.38 148.52 C 51.12 147.23 50.84 145.94 50.55 144.65 C 55.18 144.42 59.62 145.37 64.19 145.78 C 65.69 146.01 66.48 145.24 67.67 144.50 C 70.86 146.81 74.27 148.79 77.84 150.45 C 83.11 152.95 88.67 154.03 94.34 155.19 C 96.49 156.47 98.82 157.05 101.25 157.55 C 93.19 160.67 84.39 162.81 75.70 162.76 L 74.00 162.72 L 73.18 161.58 C 72.84 161.99 72.51 162.41 72.18 162.83 L 72.26 160.44 C 70.41 162.04 69.37 164.10 68.28 166.24 C 67.86 163.57 67.48 160.73 66.65 158.15 L 65.52 158.25 C 63.69 160.94 61.89 163.89 61.81 167.23 C 63.43 165.42 64.66 163.37 65.79 161.23 C 66.37 164.39 66.23 167.29 68.35 169.88 C 64.01 171.26 59.74 170.87 55.30 170.35 C 51.28 169.85 48.18 168.09 44.07 168.74 C 42.57 167.53 41.08 166.31 39.62 165.05 C 32.68 158.79 26.81 151.13 22.33 142.94 Z" fill="#054778" />
<path d="M 144.03 150.09 C 146.23 150.31 147.27 151.84 148.73 153.28 C 149.82 154.64 150.74 156.11 151.61 157.61 C 149.89 156.93 148.65 156.11 147.39 154.78 C 146.13 153.32 144.98 151.77 144.03 150.09 Z" fill="#7d8e9b" />
<path d="M 56.02 151.10 L 57.29 151.84 C 56.63 155.16 55.54 158.41 54.37 161.59 C 53.27 160.13 53.80 158.86 53.92 157.19 C 53.19 156.48 52.46 155.78 51.73 155.07 C 50.25 155.49 48.76 155.87 47.25 156.23 C 49.19 153.54 53.04 152.29 56.02 151.10 Z" fill="#b3bbc2" />
<path d="M 55.36 153.22 C 55.94 154.41 54.59 155.97 53.42 155.00 C 52.69 153.91 54.38 152.39 55.36 153.22 Z" fill="#52728a" />
<path d="M 139.86 153.82 C 140.34 154.78 140.82 155.74 141.22 156.74 C 141.12 157.50 141.00 158.26 140.88 159.01 C 141.97 158.10 143.06 157.19 144.24 156.39 C 145.67 157.62 147.09 158.85 148.41 160.20 C 146.96 159.80 145.52 159.37 144.09 158.90 C 143.27 159.52 142.45 160.15 141.64 160.79 C 141.86 162.46 141.60 163.93 140.86 165.19 C 140.10 162.66 139.44 160.09 138.83 157.52 C 139.16 156.28 139.50 155.05 139.86 153.82 Z" fill="#a8adb2" />
<path d="M 63.49 155.51 C 62.05 158.26 60.51 161.13 58.45 163.46 C 57.84 163.46 57.23 163.43 56.62 163.35 C 58.54 160.92 60.12 155.99 63.49 155.51 Z" fill="#9ba9b4" />
<path d="M 20.99 157.33 C 23.54 158.05 25.85 159.18 28.54 159.34 C 30.14 161.20 31.82 162.99 33.50 164.78 C 41.48 173.29 51.15 179.82 61.66 184.80 C 58.26 185.79 54.99 185.53 51.54 185.26 C 51.42 185.99 51.30 186.72 51.19 187.46 C 38.65 180.35 27.62 170.62 19.17 158.93 C 19.73 158.14 20.33 157.60 20.99 157.33 Z" fill="#053c65" />
<path d="M 65.52 158.25 L 66.65 158.15 C 67.48 160.73 67.86 163.57 68.28 166.24 C 69.37 164.10 70.41 162.04 72.26 160.44 L 72.18 162.83 C 70.84 165.14 69.60 167.52 68.35 169.88 C 66.23 167.29 66.37 164.39 65.79 161.23 C 64.66 163.37 63.43 165.42 61.81 167.23 C 61.89 163.89 63.69 160.94 65.52 158.25 Z" fill="#a2aeb7" />
<path d="M 133.21 157.90 C 134.91 158.93 135.75 160.54 136.65 162.24 C 137.36 163.76 137.97 165.33 138.54 166.92 C 136.42 165.81 135.57 163.92 134.40 161.99 C 134.38 163.84 134.34 165.69 134.30 167.55 C 132.80 166.57 131.30 165.59 129.81 164.61 C 130.58 166.47 131.37 168.33 132.04 170.24 C 129.12 169.32 128.15 164.90 126.84 162.45 L 127.61 161.26 C 129.37 162.35 131.09 163.51 132.81 164.68 C 132.89 162.41 132.97 160.15 133.21 157.90 Z" fill="#9ca5ac" />
<path d="M 74.00 162.72 L 75.70 162.76 C 78.21 163.41 80.41 164.36 82.44 166.00 C 81.08 166.01 79.72 166.01 78.36 166.00 C 77.32 168.48 77.14 171.37 74.54 172.74 C 75.10 170.27 75.90 167.88 76.78 165.50 C 75.73 164.67 74.70 163.90 74.00 162.72 Z" fill="#a4afb8" />
<path d="M 39.62 165.05 C 41.08 166.31 42.57 167.53 44.07 168.74 C 53.98 176.91 65.78 182.97 78.28 185.98 C 88.47 188.73 98.90 189.03 109.37 188.30 C 100.81 190.47 92.88 188.11 84.55 191.69 C 76.61 190.46 69.00 188.02 61.66 184.80 C 51.15 179.82 41.48 173.29 33.50 164.78 C 35.54 164.85 37.58 164.94 39.62 165.05 Z" fill="#b7b8ba" />
<path d="M 125.37 164.88 C 125.00 166.26 124.66 167.64 124.34 169.02 C 125.10 170.14 125.85 171.28 126.58 172.43 C 124.10 171.37 122.71 169.36 119.78 169.85 C 119.96 171.43 120.12 173.01 120.26 174.59 C 117.97 172.57 117.58 169.45 116.80 166.66 L 116.77 165.21 C 119.87 164.41 122.29 163.14 125.37 164.88 Z" fill="#9ea7ae" />
<path d="M 122.73 165.27 C 123.16 165.81 123.59 166.36 124.02 166.90 C 122.38 167.52 120.74 168.12 119.10 168.72 C 118.85 167.98 118.60 167.23 118.35 166.48 C 119.81 166.08 121.28 165.68 122.73 165.27 Z" fill="#3a5972" />
<path d="M 113.91 165.96 L 113.93 167.76 C 111.75 168.13 109.73 168.05 107.91 169.48 C 109.34 169.91 110.77 170.34 112.20 170.75 C 110.75 171.65 109.30 172.24 108.62 173.95 C 110.98 173.79 113.32 173.55 115.67 173.37 C 114.96 175.98 110.15 175.51 108.01 176.13 C 107.29 173.17 106.96 170.15 106.68 167.12 C 109.09 166.74 111.50 166.35 113.91 165.96 Z" fill="#99a5ae" />
<path d="M 104.47 169.93 C 102.07 169.67 99.04 167.63 97.59 170.58 C 96.11 172.33 98.30 174.64 100.09 174.93 C 101.27 175.25 102.44 173.90 103.44 173.38 C 102.22 173.15 101.01 172.93 99.79 172.71 C 100.75 170.31 102.62 171.46 104.68 171.19 C 104.39 172.54 104.56 174.52 103.62 175.61 C 101.64 176.92 99.36 176.99 97.41 175.58 C 94.80 173.79 95.02 169.27 97.84 167.80 C 100.14 166.31 103.86 166.92 104.47 169.93 Z" fill="#97a5af" />
<path d="M 86.11 170.09 C 87.17 169.28 90.13 170.22 89.01 171.79 C 87.97 172.62 85.08 171.62 86.11 170.09 Z" fill="#9ea8b0" />
<path d="M 51.54 185.26 C 54.99 185.53 58.26 185.79 61.66 184.80 C 69.00 188.02 76.61 190.46 84.55 191.69 C 92.15 193.16 99.75 193.20 107.46 192.92 C 103.34 194.38 99.23 194.17 94.94 194.35 C 97.04 194.69 99.14 195.03 101.24 195.39 C 97.85 196.39 94.57 197.15 91.03 196.90 C 91.01 197.88 90.99 198.86 90.97 199.84 C 76.97 198.61 63.45 194.31 51.19 187.46 C 51.30 186.72 51.42 185.99 51.54 185.26 Z" fill="#063153" />
</svg>